<mxfile host="Electron" agent="Mozilla/5.0 (Windows NT 10.0; Win64; x64) AppleWebKit/537.36 (KHTML, like Gecko) draw.io/26.0.4 Chrome/128.0.6613.186 Electron/32.2.5 Safari/537.36" version="26.0.4" pages="6">
  <diagram name="Project Brief" id="McsNOYd1awC_-GSTT8ix">
    <mxGraphModel dx="686" dy="409" grid="1" gridSize="10" guides="1" tooltips="1" connect="1" arrows="1" fold="0" page="1" pageScale="1" pageWidth="280" pageHeight="140" math="0" shadow="0">
      <root>
        <mxCell id="0" />
        <mxCell id="1" parent="0" />
        <mxCell id="jVu8TEHV4Y3cA-Kh5VHd-1" value="&lt;h1 style=&quot;margin-top: 0px;&quot;&gt;Heading&lt;/h1&gt;&lt;p&gt;Lorem ipsum dolor sit amet, consectetur adipisicing elit, sed do eiusmod tempor incididunt ut labore et dolore magna aliqua.&lt;/p&gt;" style="text;html=1;whiteSpace=wrap;overflow=hidden;rounded=0;" vertex="1" parent="1">
          <mxGeometry x="20" y="20" width="240" height="100" as="geometry" />
        </mxCell>
      </root>
    </mxGraphModel>
  </diagram>
  <diagram id="FQ1nKd3-7XS8y8ytSOO6" name="Brainstorm">
    <mxGraphModel dx="989" dy="692" grid="1" gridSize="10" guides="1" tooltips="1" connect="1" arrows="1" fold="1" page="1" pageScale="1" pageWidth="1200" pageHeight="1000" math="0" shadow="0">
      <root>
        <mxCell id="0" />
        <mxCell id="1" parent="0" />
        <mxCell id="XT3vK_XLpyIWme871qxz-1" value="Stackable CNC, 3D Printer, Laser Cutter/Engraver" style="rounded=0;whiteSpace=wrap;html=1;" parent="1" vertex="1">
          <mxGeometry x="160" y="170" width="160" height="30" as="geometry" />
        </mxCell>
        <mxCell id="XT3vK_XLpyIWme871qxz-2" value="CNC" style="rounded=0;whiteSpace=wrap;html=1;" parent="1" vertex="1">
          <mxGeometry x="440" y="340" width="200" height="200" as="geometry" />
        </mxCell>
        <mxCell id="XT3vK_XLpyIWme871qxz-3" value="3D Printer / Laser Cutter" style="rounded=0;whiteSpace=wrap;html=1;" parent="1" vertex="1">
          <mxGeometry x="440" y="120" width="200" height="200" as="geometry" />
        </mxCell>
        <mxCell id="MVqn7Z_dqOaO2EA2FJyq-2" value="" style="shape=curlyBracket;whiteSpace=wrap;html=1;rounded=1;flipH=1;labelPosition=right;verticalLabelPosition=middle;align=left;verticalAlign=middle;" vertex="1" parent="1">
          <mxGeometry x="650" y="120" width="20" height="420" as="geometry" />
        </mxCell>
        <mxCell id="MVqn7Z_dqOaO2EA2FJyq-3" value="1.6m" style="text;html=1;align=center;verticalAlign=middle;whiteSpace=wrap;rounded=0;" vertex="1" parent="1">
          <mxGeometry x="680" y="320" width="60" height="20" as="geometry" />
        </mxCell>
        <mxCell id="MVqn7Z_dqOaO2EA2FJyq-5" value="" style="shape=curlyBracket;whiteSpace=wrap;html=1;rounded=1;flipH=1;labelPosition=right;verticalLabelPosition=middle;align=left;verticalAlign=middle;direction=south;" vertex="1" parent="1">
          <mxGeometry x="440" y="90" width="200" height="20" as="geometry" />
        </mxCell>
        <mxCell id="MVqn7Z_dqOaO2EA2FJyq-6" value="0.8m" style="text;html=1;align=center;verticalAlign=middle;whiteSpace=wrap;rounded=0;" vertex="1" parent="1">
          <mxGeometry x="510" y="70" width="60" height="20" as="geometry" />
        </mxCell>
        <mxCell id="MVqn7Z_dqOaO2EA2FJyq-10" value="CNC Requirements" style="swimlane;fontStyle=0;childLayout=stackLayout;horizontal=1;startSize=20;horizontalStack=0;resizeParent=1;resizeParentMax=0;resizeLast=0;collapsible=0;marginBottom=0;whiteSpace=wrap;html=1;fontFamily=Helvetica;fontSize=11;fontColor=default;labelBackgroundColor=default;rounded=1;" vertex="1" parent="1">
          <mxGeometry x="160" y="480" width="160" height="100" as="geometry" />
        </mxCell>
        <mxCell id="MVqn7Z_dqOaO2EA2FJyq-11" value="300 x 300 x 300 Work Space" style="text;strokeColor=none;fillColor=none;align=left;verticalAlign=middle;spacingLeft=4;spacingRight=4;overflow=hidden;points=[[0,0.5],[1,0.5]];portConstraint=eastwest;rotatable=0;whiteSpace=wrap;html=1;fontFamily=Helvetica;fontSize=11;fontColor=default;labelBackgroundColor=default;" vertex="1" parent="MVqn7Z_dqOaO2EA2FJyq-10">
          <mxGeometry y="20" width="160" height="20" as="geometry" />
        </mxCell>
        <mxCell id="MVqn7Z_dqOaO2EA2FJyq-12" value="0.1 or 0.01mm Precision" style="text;strokeColor=none;fillColor=none;align=left;verticalAlign=middle;spacingLeft=4;spacingRight=4;overflow=hidden;points=[[0,0.5],[1,0.5]];portConstraint=eastwest;rotatable=0;whiteSpace=wrap;html=1;fontFamily=Helvetica;fontSize=11;fontColor=default;labelBackgroundColor=default;" vertex="1" parent="MVqn7Z_dqOaO2EA2FJyq-10">
          <mxGeometry y="40" width="160" height="20" as="geometry" />
        </mxCell>
        <mxCell id="MVqn7Z_dqOaO2EA2FJyq-13" value="6 Axis Tooling" style="text;strokeColor=none;fillColor=none;align=left;verticalAlign=middle;spacingLeft=4;spacingRight=4;overflow=hidden;points=[[0,0.5],[1,0.5]];portConstraint=eastwest;rotatable=0;whiteSpace=wrap;html=1;fontFamily=Helvetica;fontSize=11;fontColor=default;labelBackgroundColor=default;" vertex="1" parent="MVqn7Z_dqOaO2EA2FJyq-10">
          <mxGeometry y="60" width="160" height="20" as="geometry" />
        </mxCell>
        <mxCell id="MVqn7Z_dqOaO2EA2FJyq-25" value="Sub 2K Build" style="text;strokeColor=none;fillColor=none;align=left;verticalAlign=middle;spacingLeft=4;spacingRight=4;overflow=hidden;points=[[0,0.5],[1,0.5]];portConstraint=eastwest;rotatable=0;whiteSpace=wrap;html=1;fontFamily=Helvetica;fontSize=11;fontColor=default;labelBackgroundColor=default;" vertex="1" parent="MVqn7Z_dqOaO2EA2FJyq-10">
          <mxGeometry y="80" width="160" height="20" as="geometry" />
        </mxCell>
        <mxCell id="MVqn7Z_dqOaO2EA2FJyq-15" value="Laser Cutter Requirements" style="swimlane;fontStyle=0;childLayout=stackLayout;horizontal=1;startSize=20;horizontalStack=0;resizeParent=1;resizeParentMax=0;resizeLast=0;collapsible=0;marginBottom=0;whiteSpace=wrap;html=1;fontFamily=Helvetica;fontSize=11;fontColor=default;labelBackgroundColor=default;rounded=1;" vertex="1" parent="1">
          <mxGeometry x="160" y="380" width="160" height="80" as="geometry" />
        </mxCell>
        <mxCell id="MVqn7Z_dqOaO2EA2FJyq-16" value="Interchange with 3D Printer" style="text;strokeColor=none;fillColor=none;align=left;verticalAlign=middle;spacingLeft=4;spacingRight=4;overflow=hidden;points=[[0,0.5],[1,0.5]];portConstraint=eastwest;rotatable=0;whiteSpace=wrap;html=1;fontFamily=Helvetica;fontSize=11;fontColor=default;labelBackgroundColor=default;" vertex="1" parent="MVqn7Z_dqOaO2EA2FJyq-15">
          <mxGeometry y="20" width="160" height="20" as="geometry" />
        </mxCell>
        <mxCell id="MVqn7Z_dqOaO2EA2FJyq-17" value="Aluminium Engraving" style="text;strokeColor=none;fillColor=none;align=left;verticalAlign=middle;spacingLeft=4;spacingRight=4;overflow=hidden;points=[[0,0.5],[1,0.5]];portConstraint=eastwest;rotatable=0;whiteSpace=wrap;html=1;fontFamily=Helvetica;fontSize=11;fontColor=default;labelBackgroundColor=default;" vertex="1" parent="MVqn7Z_dqOaO2EA2FJyq-15">
          <mxGeometry y="40" width="160" height="20" as="geometry" />
        </mxCell>
        <mxCell id="MVqn7Z_dqOaO2EA2FJyq-24" value="Sub 300 Addon" style="text;strokeColor=none;fillColor=none;align=left;verticalAlign=middle;spacingLeft=4;spacingRight=4;overflow=hidden;points=[[0,0.5],[1,0.5]];portConstraint=eastwest;rotatable=0;whiteSpace=wrap;html=1;fontFamily=Helvetica;fontSize=11;fontColor=default;labelBackgroundColor=default;" vertex="1" parent="MVqn7Z_dqOaO2EA2FJyq-15">
          <mxGeometry y="60" width="160" height="20" as="geometry" />
        </mxCell>
        <mxCell id="MVqn7Z_dqOaO2EA2FJyq-19" value="3D Printer Requirements" style="swimlane;fontStyle=0;childLayout=stackLayout;horizontal=1;startSize=20;horizontalStack=0;resizeParent=1;resizeParentMax=0;resizeLast=0;collapsible=0;marginBottom=0;whiteSpace=wrap;html=1;fontFamily=Helvetica;fontSize=11;fontColor=default;labelBackgroundColor=default;rounded=1;" vertex="1" parent="1">
          <mxGeometry x="160" y="280" width="160" height="80" as="geometry" />
        </mxCell>
        <mxCell id="MVqn7Z_dqOaO2EA2FJyq-20" value="RAVEN 2" style="text;strokeColor=none;fillColor=none;align=left;verticalAlign=middle;spacingLeft=4;spacingRight=4;overflow=hidden;points=[[0,0.5],[1,0.5]];portConstraint=eastwest;rotatable=0;whiteSpace=wrap;html=1;fontFamily=Helvetica;fontSize=11;fontColor=default;labelBackgroundColor=default;" vertex="1" parent="MVqn7Z_dqOaO2EA2FJyq-19">
          <mxGeometry y="20" width="160" height="20" as="geometry" />
        </mxCell>
        <mxCell id="MVqn7Z_dqOaO2EA2FJyq-21" value="Ultra High Speed Fabrication" style="text;strokeColor=none;fillColor=none;align=left;verticalAlign=middle;spacingLeft=4;spacingRight=4;overflow=hidden;points=[[0,0.5],[1,0.5]];portConstraint=eastwest;rotatable=0;whiteSpace=wrap;html=1;fontFamily=Helvetica;fontSize=11;fontColor=default;labelBackgroundColor=default;" vertex="1" parent="MVqn7Z_dqOaO2EA2FJyq-19">
          <mxGeometry y="40" width="160" height="20" as="geometry" />
        </mxCell>
        <mxCell id="MVqn7Z_dqOaO2EA2FJyq-23" value="Sub 2K Build" style="text;strokeColor=none;fillColor=none;align=left;verticalAlign=middle;spacingLeft=4;spacingRight=4;overflow=hidden;points=[[0,0.5],[1,0.5]];portConstraint=eastwest;rotatable=0;whiteSpace=wrap;html=1;fontFamily=Helvetica;fontSize=11;fontColor=default;labelBackgroundColor=default;" vertex="1" parent="MVqn7Z_dqOaO2EA2FJyq-19">
          <mxGeometry y="60" width="160" height="20" as="geometry" />
        </mxCell>
        <mxCell id="MVqn7Z_dqOaO2EA2FJyq-26" value="" style="rounded=0;whiteSpace=wrap;html=1;" vertex="1" parent="1">
          <mxGeometry x="440" y="320" width="200" height="20" as="geometry" />
        </mxCell>
      </root>
    </mxGraphModel>
  </diagram>
  <diagram id="bUZLXmtgMYNzwVHecGjF" name="Hardware">
    <mxGraphModel dx="1120" dy="1043" grid="1" gridSize="10" guides="1" tooltips="1" connect="1" arrows="1" fold="1" page="1" pageScale="1" pageWidth="1200" pageHeight="1000" math="0" shadow="0">
      <root>
        <mxCell id="0" />
        <mxCell id="1" parent="0" />
        <mxCell id="IHCPm2_vo2Ln8C0-Q1K2-1" value="&lt;h1 style=&quot;margin-top: 0px;&quot;&gt;Hardware&lt;/h1&gt;&lt;p&gt;Hardware/Mechanical Hardware designing&lt;/p&gt;" style="text;html=1;whiteSpace=wrap;overflow=hidden;rounded=0;" vertex="1" parent="1">
          <mxGeometry x="40" y="40" width="240" height="70" as="geometry" />
        </mxCell>
      </root>
    </mxGraphModel>
  </diagram>
  <diagram id="PLsl3XGF2N7n7FYVW2_p" name="Software">
    <mxGraphModel dx="1120" dy="1043" grid="1" gridSize="10" guides="1" tooltips="1" connect="1" arrows="1" fold="1" page="1" pageScale="1" pageWidth="1200" pageHeight="1000" math="0" shadow="0">
      <root>
        <mxCell id="0" />
        <mxCell id="1" parent="0" />
        <mxCell id="O1lsgiQMoONT_z9E3lXe-1" value="&lt;h1 style=&quot;margin-top: 0px;&quot;&gt;Software&lt;/h1&gt;&lt;p&gt;Software design and implementation&lt;/p&gt;" style="text;html=1;whiteSpace=wrap;overflow=hidden;rounded=0;" vertex="1" parent="1">
          <mxGeometry x="40" y="40" width="220" height="70" as="geometry" />
        </mxCell>
      </root>
    </mxGraphModel>
  </diagram>
  <diagram id="ONOlR-nf4L4N_zsSdF6O" name="Embedded">
    <mxGraphModel dx="1120" dy="1043" grid="1" gridSize="10" guides="1" tooltips="1" connect="1" arrows="1" fold="1" page="1" pageScale="1" pageWidth="1200" pageHeight="1000" math="0" shadow="0">
      <root>
        <mxCell id="0" />
        <mxCell id="1" parent="0" />
        <mxCell id="95Xrmac10sdza1ySlt4Z-1" value="&lt;h1 style=&quot;margin-top: 0px;&quot;&gt;Embedded&lt;/h1&gt;&lt;p&gt;Circuit design &amp;amp; hierarchical layout&lt;/p&gt;" style="text;html=1;whiteSpace=wrap;overflow=hidden;rounded=0;" vertex="1" parent="1">
          <mxGeometry x="40" y="40" width="200" height="70" as="geometry" />
        </mxCell>
      </root>
    </mxGraphModel>
  </diagram>
  <diagram id="BfkG9xM3Ei5bP7VQ1RNh" name="System">
    <mxGraphModel dx="1120" dy="1043" grid="1" gridSize="10" guides="1" tooltips="1" connect="1" arrows="1" fold="1" page="1" pageScale="1" pageWidth="1200" pageHeight="1000" math="0" shadow="0">
      <root>
        <mxCell id="0" />
        <mxCell id="1" parent="0" />
        <mxCell id="n4R0kfJeCWXGuMW6Snkg-1" value="&lt;h1 style=&quot;margin-top: 0px;&quot;&gt;Overall System&lt;/h1&gt;&lt;p&gt;Combination of hardware, software and embedded systems where the overall performing proceedures are designed&lt;/p&gt;" style="text;html=1;whiteSpace=wrap;overflow=hidden;rounded=0;" vertex="1" parent="1">
          <mxGeometry x="40" y="40" width="340" height="80" as="geometry" />
        </mxCell>
      </root>
    </mxGraphModel>
  </diagram>
</mxfile>
